<?xml version="1.0" encoding="UTF-8" standalone="no"?>
<!-- Created with Inkscape (http://www.inkscape.org/) -->

<svg
   version="1.1"
   id="svg2"
   xml:space="preserve"
   width="576"
   height="384"
   viewBox="0 0 576 384"
   xmlns="http://www.w3.org/2000/svg"
   xmlns:svg="http://www.w3.org/2000/svg"><defs
     id="defs6"><clipPath
       clipPathUnits="userSpaceOnUse"
       id="clipPath18"><path
         d="M 0,0 H 432 V 288 H 0 Z"
         id="path16" /></clipPath><clipPath
       clipPathUnits="userSpaceOnUse"
       id="clipPath38"><path
         d="M 0,0 H 432 V 288 H 0 Z"
         id="path36" /></clipPath><clipPath
       clipPathUnits="userSpaceOnUse"
       id="clipPath66"><path
         d="M 0,0 H 432 V 288 H 0 Z"
         id="path64" /></clipPath><clipPath
       clipPathUnits="userSpaceOnUse"
       id="clipPath76"><path
         d="M -10.700877,-10.700877 H 10.700877 V 10.700877 H -10.700877 Z"
         id="path74" /></clipPath><clipPath
       clipPathUnits="userSpaceOnUse"
       id="clipPath88"><path
         d="M -10.700877,-10.700877 H 10.700877 V 10.700877 H -10.700877 Z"
         id="path86" /></clipPath><clipPath
       clipPathUnits="userSpaceOnUse"
       id="clipPath100"><path
         d="M -10.700877,-10.700877 H 10.700877 V 10.700877 H -10.700877 Z"
         id="path98" /></clipPath><clipPath
       clipPathUnits="userSpaceOnUse"
       id="clipPath112"><path
         d="M -10.700877,-10.700877 H 10.700877 V 10.700877 H -10.700877 Z"
         id="path110" /></clipPath><clipPath
       clipPathUnits="userSpaceOnUse"
       id="clipPath124"><path
         d="M -10.700877,-10.700877 H 10.700877 V 10.700877 H -10.700877 Z"
         id="path122" /></clipPath><clipPath
       clipPathUnits="userSpaceOnUse"
       id="clipPath136"><path
         d="M -10.700877,-10.700877 H 10.700877 V 10.700877 H -10.700877 Z"
         id="path134" /></clipPath><clipPath
       clipPathUnits="userSpaceOnUse"
       id="clipPath148"><path
         d="M -10.700877,-10.700877 H 10.700877 V 10.700877 H -10.700877 Z"
         id="path146" /></clipPath><clipPath
       clipPathUnits="userSpaceOnUse"
       id="clipPath160"><path
         d="M -10.700877,-10.700877 H 10.700877 V 10.700877 H -10.700877 Z"
         id="path158" /></clipPath><clipPath
       clipPathUnits="userSpaceOnUse"
       id="clipPath172"><path
         d="M -10.700877,-10.700877 H 10.700877 V 10.700877 H -10.700877 Z"
         id="path170" /></clipPath><clipPath
       clipPathUnits="userSpaceOnUse"
       id="clipPath184"><path
         d="M -10.700877,-10.700877 H 10.700877 V 10.700877 H -10.700877 Z"
         id="path182" /></clipPath><clipPath
       clipPathUnits="userSpaceOnUse"
       id="clipPath194"><path
         d="M 0,0 H 432 V 288 H 0 Z"
         id="path192" /></clipPath><clipPath
       clipPathUnits="userSpaceOnUse"
       id="clipPath204"><path
         d="M 0,0 H 432 V 288 H 0 Z"
         id="path202" /></clipPath><clipPath
       clipPathUnits="userSpaceOnUse"
       id="clipPath218"><path
         d="M 0,0 H 432 V 288 H 0 Z"
         id="path216" /></clipPath><clipPath
       clipPathUnits="userSpaceOnUse"
       id="clipPath232"><path
         d="M 0,0 H 432 V 288 H 0 Z"
         id="path230" /></clipPath><clipPath
       clipPathUnits="userSpaceOnUse"
       id="clipPath246"><path
         d="M 0,0 H 432 V 288 H 0 Z"
         id="path244" /></clipPath><clipPath
       clipPathUnits="userSpaceOnUse"
       id="clipPath260"><path
         d="M 0,0 H 432 V 288 H 0 Z"
         id="path258" /></clipPath><clipPath
       clipPathUnits="userSpaceOnUse"
       id="clipPath274"><path
         d="M 0,0 H 432 V 288 H 0 Z"
         id="path272" /></clipPath><clipPath
       clipPathUnits="userSpaceOnUse"
       id="clipPath288"><path
         d="M 0,0 H 432 V 288 H 0 Z"
         id="path286" /></clipPath><clipPath
       clipPathUnits="userSpaceOnUse"
       id="clipPath302"><path
         d="M 0,0 H 432 V 288 H 0 Z"
         id="path300" /></clipPath><clipPath
       clipPathUnits="userSpaceOnUse"
       id="clipPath316"><path
         d="M 0,0 H 432 V 288 H 0 Z"
         id="path314" /></clipPath><clipPath
       clipPathUnits="userSpaceOnUse"
       id="clipPath330"><path
         d="M 0,0 H 432 V 288 H 0 Z"
         id="path328" /></clipPath><clipPath
       clipPathUnits="userSpaceOnUse"
       id="clipPath344"><path
         d="M 0,0 H 432 V 288 H 0 Z"
         id="path342" /></clipPath></defs><g
     id="g8"
     transform="matrix(1.3333333,0,0,-1.3333333,0,384)"><path
       d="M 0,0 H 432 V 288 H 0 Z"
       style="fill:#ffffff;fill-opacity:1;fill-rule:nonzero;stroke:none"
       id="path10" /><g
       id="g12"><g
         id="g14"
         clip-path="url(#clipPath18)"><path
           d="M 37.487603,24.991736 184.50071,100.40262"
           style="fill:none;stroke:#3a90bf;stroke-width:2.5;stroke-linecap:butt;stroke-linejoin:round;stroke-miterlimit:10;stroke-dasharray:none;stroke-opacity:1"
           id="path20" /><path
           d="m 184.50071,100.40262 122.50682,77.6624"
           style="fill:none;stroke:#3a90bf;stroke-width:2.5;stroke-linecap:butt;stroke-linejoin:round;stroke-miterlimit:10;stroke-dasharray:none;stroke-opacity:1"
           id="path22" /><path
           d="m 307.00753,178.06502 -100.6306,24.2695"
           style="fill:none;stroke:#3a90bf;stroke-width:2.5;stroke-linecap:butt;stroke-linejoin:round;stroke-miterlimit:10;stroke-dasharray:none;stroke-opacity:1"
           id="path24" /><path
           d="M 206.37693,202.33452 48.868162,122.24517"
           style="fill:none;stroke:#3a90bf;stroke-width:2.5;stroke-linecap:butt;stroke-linejoin:round;stroke-miterlimit:10;stroke-dasharray:none;stroke-opacity:1"
           id="path26" /><path
           d="m 48.868162,122.24517 26.25146,-4.8539"
           style="fill:none;stroke:#3a90bf;stroke-width:2.5;stroke-linecap:butt;stroke-linejoin:round;stroke-miterlimit:10;stroke-dasharray:none;stroke-opacity:1"
           id="path28" /><path
           d="M 75.119622,117.39127 37.487603,24.991736"
           style="fill:none;stroke:#3a90bf;stroke-width:2.5;stroke-linecap:butt;stroke-linejoin:round;stroke-miterlimit:10;stroke-dasharray:none;stroke-opacity:1"
           id="path30" /></g></g><g
       id="g32"><g
         id="g34"
         clip-path="url(#clipPath38)"><path
           d="M 37.487603,24.991736 285.13131,63.998374"
           style="fill:none;stroke:#64aad0;stroke-width:2;stroke-linecap:butt;stroke-linejoin:round;stroke-miterlimit:10;stroke-dasharray:7.4, 3.2;stroke-dashoffset:0;stroke-opacity:1"
           id="path40" /><path
           d="M 285.13131,63.998374 184.50071,100.40262"
           style="fill:none;stroke:#64aad0;stroke-width:2;stroke-linecap:butt;stroke-linejoin:round;stroke-miterlimit:10;stroke-dasharray:7.4, 3.2;stroke-dashoffset:0;stroke-opacity:1"
           id="path42" /><path
           d="M 184.50071,100.40262 394.5124,131.95297"
           style="fill:none;stroke:#64aad0;stroke-width:2;stroke-linecap:butt;stroke-linejoin:round;stroke-miterlimit:10;stroke-dasharray:7.4, 3.2;stroke-dashoffset:0;stroke-opacity:1"
           id="path44" /><path
           d="m 394.5124,131.95297 -87.50487,46.11205"
           style="fill:none;stroke:#64aad0;stroke-width:2;stroke-linecap:butt;stroke-linejoin:round;stroke-miterlimit:10;stroke-dasharray:7.4, 3.2;stroke-dashoffset:0;stroke-opacity:1"
           id="path46" /><path
           d="m 307.00753,178.06502 8.75048,77.66239"
           style="fill:none;stroke:#64aad0;stroke-width:2;stroke-linecap:butt;stroke-linejoin:round;stroke-miterlimit:10;stroke-dasharray:7.4, 3.2;stroke-dashoffset:0;stroke-opacity:1"
           id="path48" /><path
           d="M 315.75801,255.72741 206.37693,202.33452"
           style="fill:none;stroke:#64aad0;stroke-width:2;stroke-linecap:butt;stroke-linejoin:round;stroke-miterlimit:10;stroke-dasharray:7.4, 3.2;stroke-dashoffset:0;stroke-opacity:1"
           id="path50" /><path
           d="m 206.37693,202.33452 105.00584,60.67374"
           style="fill:none;stroke:#64aad0;stroke-width:2;stroke-linecap:butt;stroke-linejoin:round;stroke-miterlimit:10;stroke-dasharray:7.4, 3.2;stroke-dashoffset:0;stroke-opacity:1"
           id="path52" /><path
           d="M 311.38277,263.00826 75.119622,117.39127"
           style="fill:none;stroke:#64aad0;stroke-width:2;stroke-linecap:butt;stroke-linejoin:round;stroke-miterlimit:10;stroke-dasharray:7.4, 3.2;stroke-dashoffset:0;stroke-opacity:1"
           id="path54" /><path
           d="m 75.119622,117.39127 87.504868,16.98865"
           style="fill:none;stroke:#64aad0;stroke-width:2;stroke-linecap:butt;stroke-linejoin:round;stroke-miterlimit:10;stroke-dasharray:7.4, 3.2;stroke-dashoffset:0;stroke-opacity:1"
           id="path56" /><path
           d="M 162.62449,134.37992 37.487603,24.991736"
           style="fill:none;stroke:#64aad0;stroke-width:2;stroke-linecap:butt;stroke-linejoin:round;stroke-miterlimit:10;stroke-dasharray:7.4, 3.2;stroke-dashoffset:0;stroke-opacity:1"
           id="path58" /></g></g><g
       id="g60"><g
         id="g62"
         clip-path="url(#clipPath66)"><g
           id="g68"
           transform="translate(162.62449,134.37992)"><g
             id="g70"><g
               id="g72"
               clip-path="url(#clipPath76)"><path
                 d="m 0,-5.700877 c 1.51189,0 2.962061,0.60068 4.031129,1.669748 C 5.100197,-2.962061 5.700877,-1.51189 5.700877,0 c 0,1.51189 -0.60068,2.962061 -1.669748,4.031129 C 2.962061,5.100197 1.51189,5.700877 0,5.700877 c -1.51189,0 -2.962061,-0.60068 -4.031129,-1.669748 C -5.100197,2.962061 -5.700877,1.51189 -5.700877,0 c 0,-1.51189 0.60068,-2.962061 1.669748,-4.031129 C -2.962061,-5.100197 -1.51189,-5.700877 0,-5.700877 Z"
                 style="fill:#87ceeb;fill-opacity:1;fill-rule:nonzero;stroke:#87ceeb;stroke-width:1;stroke-linecap:butt;stroke-linejoin:round;stroke-miterlimit:10;stroke-dasharray:none;stroke-opacity:1"
                 id="path78" /></g></g><g
             id="g80"
             transform="translate(148.75828,128.62834)"><g
               id="g82"><g
                 id="g84"
                 clip-path="url(#clipPath88)"><path
                   d="m 0,-5.700877 c 1.51189,0 2.962061,0.60068 4.031129,1.669748 C 5.100197,-2.962061 5.700877,-1.51189 5.700877,0 c 0,1.51189 -0.60068,2.962061 -1.669748,4.031129 C 2.962061,5.100197 1.51189,5.700877 0,5.700877 c -1.51189,0 -2.962061,-0.60068 -4.031129,-1.669748 C -5.100197,2.962061 -5.700877,1.51189 -5.700877,0 c 0,-1.51189 0.60068,-2.962061 1.669748,-4.031129 C -2.962061,-5.100197 -1.51189,-5.700877 0,-5.700877 Z"
                   style="fill:#87ceeb;fill-opacity:1;fill-rule:nonzero;stroke:#87ceeb;stroke-width:1;stroke-linecap:butt;stroke-linejoin:round;stroke-miterlimit:10;stroke-dasharray:none;stroke-opacity:1"
                   id="path90" /></g></g><g
               id="g92"
               transform="translate(-105.00584,-60.673747)"><g
                 id="g94"><g
                   id="g96"
                   clip-path="url(#clipPath100)"><path
                     d="m 0,-5.700877 c 1.51189,0 2.962061,0.60068 4.031129,1.669748 C 5.100197,-2.962061 5.700877,-1.51189 5.700877,0 c 0,1.51189 -0.60068,2.962061 -1.669748,4.031129 C 2.962061,5.100197 1.51189,5.700877 0,5.700877 c -1.51189,0 -2.962061,-0.60068 -4.031129,-1.669748 C -5.100197,2.962061 -5.700877,1.51189 -5.700877,0 c 0,-1.51189 0.60068,-2.962061 1.669748,-4.031129 C -2.962061,-5.100197 -1.51189,-5.700877 0,-5.700877 Z"
                     style="fill:#87ceeb;fill-opacity:1;fill-rule:nonzero;stroke:#87ceeb;stroke-width:1;stroke-linecap:butt;stroke-linejoin:round;stroke-miterlimit:10;stroke-dasharray:none;stroke-opacity:1"
                     id="path102" /></g></g><g
                 id="g104"
                 transform="translate(109.38109,53.392898)"><g
                   id="g106"><g
                     id="g108"
                     clip-path="url(#clipPath112)"><path
                       d="m 0,-5.700877 c 1.51189,0 2.962061,0.60068 4.031129,1.669748 C 5.100197,-2.962061 5.700877,-1.51189 5.700877,0 c 0,1.51189 -0.60068,2.962061 -1.669748,4.031129 C 2.962061,5.100197 1.51189,5.700877 0,5.700877 c -1.51189,0 -2.962061,-0.60068 -4.031129,-1.669748 C -5.100197,2.962061 -5.700877,1.51189 -5.700877,0 c 0,-1.51189 0.60068,-2.962061 1.669748,-4.031129 C -2.962061,-5.100197 -1.51189,-5.700877 0,-5.700877 Z"
                       style="fill:#87ceeb;fill-opacity:1;fill-rule:nonzero;stroke:#87ceeb;stroke-width:1;stroke-linecap:butt;stroke-linejoin:round;stroke-miterlimit:10;stroke-dasharray:none;stroke-opacity:1"
                       id="path114" /></g></g><g
                   id="g116"
                   transform="translate(-30.626704,-191.72904)"><g
                     id="g118"><g
                       id="g120"
                       clip-path="url(#clipPath124)"><path
                         d="m 0,-5.700877 c 1.51189,0 2.962061,0.60068 4.031129,1.669748 C 5.100197,-2.962061 5.700877,-1.51189 5.700877,0 c 0,1.51189 -0.60068,2.962061 -1.669748,4.031129 C 2.962061,5.100197 1.51189,5.700877 0,5.700877 c -1.51189,0 -2.962061,-0.60068 -4.031129,-1.669748 C -5.100197,2.962061 -5.700877,1.51189 -5.700877,0 c 0,-1.51189 0.60068,-2.962061 1.669748,-4.031129 C -2.962061,-5.100197 -1.51189,-5.700877 0,-5.700877 Z"
                         style="fill:#87ceeb;fill-opacity:1;fill-rule:nonzero;stroke:#87ceeb;stroke-width:1;stroke-linecap:butt;stroke-linejoin:round;stroke-miterlimit:10;stroke-dasharray:none;stroke-opacity:1"
                         id="path126" /></g></g><g
                     id="g128"
                     transform="translate(21.876217,114.06664)"><g
                       id="g130"><g
                         id="g132"
                         clip-path="url(#clipPath136)"><path
                           d="m 0,-5.700877 c 1.51189,0 2.962061,0.60068 4.031129,1.669748 C 5.100197,-2.962061 5.700877,-1.51189 5.700877,0 c 0,1.51189 -0.60068,2.962061 -1.669748,4.031129 C 2.962061,5.100197 1.51189,5.700877 0,5.700877 c -1.51189,0 -2.962061,-0.60068 -4.031129,-1.669748 C -5.100197,2.962061 -5.700877,1.51189 -5.700877,0 c 0,-1.51189 0.60068,-2.962061 1.669748,-4.031129 C -2.962061,-5.100197 -1.51189,-5.700877 0,-5.700877 Z"
                           style="fill:#87ceeb;fill-opacity:1;fill-rule:nonzero;stroke:#87ceeb;stroke-width:1;stroke-linecap:butt;stroke-linejoin:round;stroke-miterlimit:10;stroke-dasharray:none;stroke-opacity:1"
                           id="path138" /></g></g><g
                       id="g140"
                       transform="translate(87.50487,-46.112048)"><g
                         id="g142"><g
                           id="g144"
                           clip-path="url(#clipPath148)"><path
                             d="m 0,-5.700877 c 1.51189,0 2.962061,0.60068 4.031129,1.669748 C 5.100197,-2.962061 5.700877,-1.51189 5.700877,0 c 0,1.51189 -0.60068,2.962061 -1.669748,4.031129 C 2.962061,5.100197 1.51189,5.700877 0,5.700877 c -1.51189,0 -2.962061,-0.60068 -4.031129,-1.669748 C -5.100197,2.962061 -5.700877,1.51189 -5.700877,0 c 0,-1.51189 0.60068,-2.962061 1.669748,-4.031129 C -2.962061,-5.100197 -1.51189,-5.700877 0,-5.700877 Z"
                             style="fill:#87ceeb;fill-opacity:1;fill-rule:nonzero;stroke:#87ceeb;stroke-width:1;stroke-linecap:butt;stroke-linejoin:round;stroke-miterlimit:10;stroke-dasharray:none;stroke-opacity:1"
                             id="path150" /></g></g><g
                         id="g152"
                         transform="translate(-319.39277,-14.561699)"><g
                           id="g154"><g
                             id="g156"
                             clip-path="url(#clipPath160)"><path
                               d="m 0,-5.700877 c 1.51189,0 2.962061,0.60068 4.031129,1.669748 C 5.100197,-2.962061 5.700877,-1.51189 5.700877,0 c 0,1.51189 -0.60068,2.962061 -1.669748,4.031129 C 2.962061,5.100197 1.51189,5.700877 0,5.700877 c -1.51189,0 -2.962061,-0.60068 -4.031129,-1.669748 C -5.100197,2.962061 -5.700877,1.51189 -5.700877,0 c 0,-1.51189 0.60068,-2.962061 1.669748,-4.031129 C -2.962061,-5.100197 -1.51189,-5.700877 0,-5.700877 Z"
                               style="fill:#87ceeb;fill-opacity:1;fill-rule:nonzero;stroke:#87ceeb;stroke-width:1;stroke-linecap:butt;stroke-linejoin:round;stroke-miterlimit:10;stroke-dasharray:none;stroke-opacity:1"
                               id="path162" /></g></g><g
                           id="g164"
                           transform="translate(-26.251461,4.8538998)"><g
                             id="g166"><g
                               id="g168"
                               clip-path="url(#clipPath172)"><path
                                 d="m 0,-5.700877 c 1.51189,0 2.962061,0.60068 4.031129,1.669748 C 5.100197,-2.962061 5.700877,-1.51189 5.700877,0 c 0,1.51189 -0.60068,2.962061 -1.669748,4.031129 C 2.962061,5.100197 1.51189,5.700877 0,5.700877 c -1.51189,0 -2.962061,-0.60068 -4.031129,-1.669748 C -5.100197,2.962061 -5.700877,1.51189 -5.700877,0 c 0,-1.51189 0.60068,-2.962061 1.669748,-4.031129 C -2.962061,-5.100197 -1.51189,-5.700877 0,-5.700877 Z"
                                 style="fill:#87ceeb;fill-opacity:1;fill-rule:nonzero;stroke:#87ceeb;stroke-width:1;stroke-linecap:butt;stroke-linejoin:round;stroke-miterlimit:10;stroke-dasharray:none;stroke-opacity:1"
                                 id="path174" /></g></g><g
                             id="g176"
                             transform="translate(135.63255,-21.842549)"><g
                               id="g178"><g
                                 id="g180"
                                 clip-path="url(#clipPath184)"><path
                                   d="m 0,-5.700877 c 1.51189,0 2.962061,0.60068 4.031129,1.669748 C 5.100197,-2.962061 5.700877,-1.51189 5.700877,0 c 0,1.51189 -0.60068,2.962061 -1.669748,4.031129 C 2.962061,5.100197 1.51189,5.700877 0,5.700877 c -1.51189,0 -2.962061,-0.60068 -4.031129,-1.669748 C -5.100197,2.962061 -5.700877,1.51189 -5.700877,0 c 0,-1.51189 0.60068,-2.962061 1.669748,-4.031129 C -2.962061,-5.100197 -1.51189,-5.700877 0,-5.700877 Z"
                                   style="fill:#87ceeb;fill-opacity:1;fill-rule:nonzero;stroke:#87ceeb;stroke-width:1;stroke-linecap:butt;stroke-linejoin:round;stroke-miterlimit:10;stroke-dasharray:none;stroke-opacity:1"
                                   id="path186" /></g></g></g></g></g></g></g></g></g></g></g></g></g></g><g
       id="g188"><g
         id="g190"
         clip-path="url(#clipPath194)"><path
           d="m 37.487603,19.290858 c 1.511891,0 2.962061,0.600681 4.031129,1.669749 1.069068,1.069068 1.669748,2.519238 1.669748,4.031129 0,1.51189 -0.60068,2.962061 -1.669748,4.031128 -1.069068,1.069068 -2.519238,1.669749 -4.031129,1.669749 -1.51189,0 -2.962061,-0.600681 -4.031129,-1.669749 -1.069067,-1.069067 -1.669748,-2.519238 -1.669748,-4.031128 0,-1.511891 0.600681,-2.962061 1.669748,-4.031129 1.069068,-1.069068 2.519239,-1.669749 4.031129,-1.669749 z"
           style="fill:#1a4155;fill-opacity:1;fill-rule:nonzero;stroke:#1a4155;stroke-width:1;stroke-linecap:butt;stroke-linejoin:round;stroke-miterlimit:10;stroke-dasharray:none;stroke-opacity:1"
           id="path196" /></g></g><g
       id="g198"><g
         id="g200"
         clip-path="url(#clipPath204)"><g
           id="g206"
           transform="translate(160.07762,132.1768)"><text
             transform="scale(1,-1)"
             style="font-variant:normal;font-weight:normal;font-size:8px;font-family:'DejaVu Sans';-inkscape-font-specification:DejaVuSans;writing-mode:lr-tb;fill:#ffffff;fill-opacity:1;fill-rule:nonzero;stroke:none"
             id="text210"><tspan
               x="0"
               y="0"
               id="tspan208">2</tspan></text></g></g></g><g
       id="g212"><g
         id="g214"
         clip-path="url(#clipPath218)"><g
           id="g220"
           transform="translate(308.8359,260.80514)"><text
             transform="scale(1,-1)"
             style="font-variant:normal;font-weight:normal;font-size:8px;font-family:'DejaVu Sans';-inkscape-font-specification:DejaVuSans;writing-mode:lr-tb;fill:#ffffff;fill-opacity:1;fill-rule:nonzero;stroke:none"
             id="text224"><tspan
               x="0"
               y="0"
               id="tspan222">3</tspan></text></g></g></g><g
       id="g226"><g
         id="g228"
         clip-path="url(#clipPath232)"><g
           id="g234"
           transform="translate(203.83005,200.13139)"><text
             transform="scale(1,-1)"
             style="font-variant:normal;font-weight:normal;font-size:8px;font-family:'DejaVu Sans';-inkscape-font-specification:DejaVuSans;writing-mode:lr-tb;fill:#ffffff;fill-opacity:1;fill-rule:nonzero;stroke:none"
             id="text238"><tspan
               x="0"
               y="0"
               id="tspan236">4</tspan></text></g></g></g><g
       id="g240"><g
         id="g242"
         clip-path="url(#clipPath246)"><g
           id="g248"
           transform="translate(313.21114,253.52429)"><text
             transform="scale(1,-1)"
             style="font-variant:normal;font-weight:normal;font-size:8px;font-family:'DejaVu Sans';-inkscape-font-specification:DejaVuSans;writing-mode:lr-tb;fill:#ffffff;fill-opacity:1;fill-rule:nonzero;stroke:none"
             id="text252"><tspan
               x="0"
               y="0"
               id="tspan250">5</tspan></text></g></g></g><g
       id="g254"><g
         id="g256"
         clip-path="url(#clipPath260)"><g
           id="g262"
           transform="translate(282.58443,61.795249)"><text
             transform="scale(1,-1)"
             style="font-variant:normal;font-weight:normal;font-size:8px;font-family:'DejaVu Sans';-inkscape-font-specification:DejaVuSans;writing-mode:lr-tb;fill:#ffffff;fill-opacity:1;fill-rule:nonzero;stroke:none"
             id="text266"><tspan
               x="0"
               y="0"
               id="tspan264">6</tspan></text></g></g></g><g
       id="g268"><g
         id="g270"
         clip-path="url(#clipPath274)"><g
           id="g276"
           transform="translate(304.46065,175.86189)"><text
             transform="scale(1,-1)"
             style="font-variant:normal;font-weight:normal;font-size:8px;font-family:'DejaVu Sans';-inkscape-font-specification:DejaVuSans;writing-mode:lr-tb;fill:#ffffff;fill-opacity:1;fill-rule:nonzero;stroke:none"
             id="text280"><tspan
               x="0"
               y="0"
               id="tspan278">7</tspan></text></g></g></g><g
       id="g282"><g
         id="g284"
         clip-path="url(#clipPath288)"><g
           id="g290"
           transform="translate(391.96552,129.74985)"><text
             transform="scale(1,-1)"
             style="font-variant:normal;font-weight:normal;font-size:8px;font-family:'DejaVu Sans';-inkscape-font-specification:DejaVuSans;writing-mode:lr-tb;fill:#ffffff;fill-opacity:1;fill-rule:nonzero;stroke:none"
             id="text294"><tspan
               x="0"
               y="0"
               id="tspan292">8</tspan></text></g></g></g><g
       id="g296"><g
         id="g298"
         clip-path="url(#clipPath302)"><g
           id="g304"
           transform="translate(72.572747,115.18815)"><text
             transform="scale(1,-1)"
             style="font-variant:normal;font-weight:normal;font-size:8px;font-family:'DejaVu Sans';-inkscape-font-specification:DejaVuSans;writing-mode:lr-tb;fill:#ffffff;fill-opacity:1;fill-rule:nonzero;stroke:none"
             id="text308"><tspan
               x="0"
               y="0"
               id="tspan306">9</tspan></text></g></g></g><g
       id="g310"><g
         id="g312"
         clip-path="url(#clipPath316)"><g
           id="g318"
           transform="translate(43.774412,120.04205)"><text
             transform="scale(1,-1)"
             style="font-variant:normal;font-weight:normal;font-size:8px;font-family:'DejaVu Sans';-inkscape-font-specification:DejaVuSans;writing-mode:lr-tb;fill:#ffffff;fill-opacity:1;fill-rule:nonzero;stroke:none"
             id="text322"><tspan
               x="0 5.0879998"
               y="0"
               id="tspan320">10</tspan></text></g></g></g><g
       id="g324"><g
         id="g326"
         clip-path="url(#clipPath330)"><g
           id="g332"
           transform="translate(179.40696,98.199497)"><text
             transform="scale(1,-1)"
             style="font-variant:normal;font-weight:normal;font-size:8px;font-family:'DejaVu Sans';-inkscape-font-specification:DejaVuSans;writing-mode:lr-tb;fill:#ffffff;fill-opacity:1;fill-rule:nonzero;stroke:none"
             id="text336"><tspan
               x="0 5.0879998"
               y="0"
               id="tspan334">11</tspan></text></g></g></g><g
       id="g338"><g
         id="g340"
         clip-path="url(#clipPath344)"><g
           id="g346"
           transform="translate(34.940728,22.788611)"><text
             transform="scale(1,-1)"
             style="font-variant:normal;font-weight:normal;font-size:8px;font-family:'DejaVu Sans';-inkscape-font-specification:DejaVuSans;writing-mode:lr-tb;fill:#ffffff;fill-opacity:1;fill-rule:nonzero;stroke:none"
             id="text350"><tspan
               x="0"
               y="0"
               id="tspan348">1</tspan></text></g></g></g></g></svg>
